<svg width="512" height="512" xmlns="http://www.w3.org/2000/svg">
  <!-- Cosmic background with gradient -->
  <defs>
    <radialGradient id="cosmicGradient" cx="50%" cy="50%" r="50%">
      <stop offset="0%" style="stop-color:#1e1b4b;stop-opacity:1" />
      <stop offset="50%" style="stop-color:#312e81;stop-opacity:1" />
      <stop offset="100%" style="stop-color:#0f172a;stop-opacity:1" />
    </radialGradient>
    <linearGradient id="sunGradient" x1="0%" y1="0%" x2="100%" y2="100%">
      <stop offset="0%" style="stop-color:#fbbf24;stop-opacity:1" />
      <stop offset="50%" style="stop-color:#f59e0b;stop-opacity:1" />
      <stop offset="100%" style="stop-color:#d97706;stop-opacity:1" />
    </linearGradient>
  </defs>
  
  <!-- Background circle -->
  <circle cx="256" cy="256" r="256" fill="url(#cosmicGradient)"/>
  
  <!-- Sun symbol -->
  <g transform="translate(256,256)">
    <!-- All sun rays - uniform size and bright yellow -->
    <g stroke="#fde047" stroke-width="10" stroke-linecap="round">
      <!-- Main cardinal directions -->
      <line x1="0" y1="-256" x2="0" y2="-140"/>
      <line x1="256" y1="0" x2="140" y2="0"/>
      <line x1="0" y1="256" x2="0" y2="140"/>
      <line x1="-256" y1="0" x2="-140" y2="0"/>
      
      <!-- Diagonal rays -->
      <line x1="181" y1="-181" x2="99" y2="-99"/>
      <line x1="181" y1="181" x2="99" y2="99"/>
      <line x1="-181" y1="181" x2="-99" y2="99"/>
      <line x1="-181" y1="-181" x2="-99" y2="-99"/>
      
      <!-- Intermediate rays between main rays -->
      <line x1="90" y1="-236" x2="63" y2="-167"/>
      <line x1="167" y1="-167" x2="118" y2="-118"/>
      <line x1="236" y1="-90" x2="167" y2="-63"/>
      <line x1="236" y1="90" x2="167" y2="63"/>
      <line x1="167" y1="167" x2="118" y2="118"/>
      <line x1="90" y1="236" x2="63" y2="167"/>
      <line x1="-90" y1="236" x2="-63" y2="167"/>
      <line x1="-167" y1="167" x2="-118" y2="118"/>
      <line x1="-236" y1="90" x2="-167" y2="63"/>
      <line x1="-236" y1="-90" x2="-167" y2="-63"/>
      <line x1="-167" y1="-167" x2="-118" y2="-118"/>
      <line x1="-90" y1="-236" x2="-63" y2="-167"/>
    </g>
    
    <!-- Central sun circle with gradient -->
    <circle cx="0" cy="0" r="130" fill="url(#sunGradient)" stroke="#fbbf24" stroke-width="8"/>
  </g>
</svg>
